<svg width="19" height="20" viewBox="0 0 19 20" fill="none" xmlns="http://www.w3.org/2000/svg">
<mask id="mask0" mask-type="alpha" maskUnits="userSpaceOnUse" x="0" y="0" width="19" height="20">
<path fill-rule="evenodd" clip-rule="evenodd" d="M0.0357666 0.000200272H18.2005V19.91H0.0357666V0.000200272Z" fill="white"/>
</mask>
<g mask="url(#mask0)">
<path fill-rule="evenodd" clip-rule="evenodd" d="M12.9445 1.5L5.25546 1.504C2.92746 1.518 1.53546 2.958 1.53546 5.357V14.553C1.53546 16.968 2.94046 18.41 5.29146 18.41L12.9805 18.407C15.3085 18.393 16.7005 16.951 16.7005 14.553V5.357C16.7005 2.942 15.2965 1.5 12.9445 1.5ZM5.29246 19.91C2.14846 19.91 0.0354614 17.757 0.0354614 14.553V5.357C0.0354614 2.124 2.08246 0.023 5.25046 0.004L12.9435 0H12.9445C16.0885 0 18.2005 2.153 18.2005 5.357V14.553C18.2005 17.785 16.1535 19.887 12.9855 19.907L5.29246 19.91Z" fill="white"/>
</g>
</svg>
